<svg id="Layer_1" data-name="Layer 1" xmlns="http://www.w3.org/2000/svg" xmlns:xlink="http://www.w3.org/1999/xlink" viewBox="0 0 385.53 81.37" width="385.53" height="81.37">
  <defs>
    <style>
      .cls-1 {
        fill: url(#linear-gradient);
      }

      .cls-2 {
        fill: #f07f24;
      }

      .cls-3 {
        fill: #1e1f3e;
      }

      .cls-4 {
        fill: url(#linear-gradient-3);
      }

      .cls-5 {
        fill: url(#linear-gradient-4);
      }

      .cls-6 {
        fill: url(#linear-gradient-2);
      }
    </style>
    <linearGradient id="linear-gradient" x1="35.23" y1="20.34" x2="70.47" y2="20.34" gradientUnits="userSpaceOnUse">
      <stop offset="0" stop-color="#f07f24"/>
      <stop offset=".26" stop-color="#ee7420"/>
      <stop offset=".72" stop-color="#ea5718"/>
      <stop offset="1" stop-color="#e74313"/>
    </linearGradient>
    <linearGradient id="linear-gradient-2" x1="0" y1="61.04" x2="35.23" y2="61.04" gradientUnits="userSpaceOnUse">
      <stop offset="0" stop-color="#1e1f3e"/>
      <stop offset=".34" stop-color="#1d2548"/>
      <stop offset=".93" stop-color="#1c3765"/>
      <stop offset="1" stop-color="#1c3a69"/>
    </linearGradient>
    <linearGradient id="linear-gradient-3" x1="0" y1="24.47" x2="35.23" y2="24.47" gradientUnits="userSpaceOnUse">
      <stop offset="0" stop-color="#0693d2"/>
      <stop offset=".2" stop-color="#0c74aa"/>
      <stop offset=".45" stop-color="#134f7b"/>
      <stop offset=".68" stop-color="#19355a"/>
      <stop offset=".87" stop-color="#1c2445"/>
      <stop offset="1" stop-color="#1e1f3e"/>
    </linearGradient>
    <linearGradient id="linear-gradient-4" x1="35.23" y1="56.58" x2="70.47" y2="56.58" gradientUnits="userSpaceOnUse">
      <stop offset=".27" stop-color="#f07f24"/>
      <stop offset=".39" stop-color="#f18922"/>
      <stop offset=".6" stop-color="#f5a61f"/>
      <stop offset=".88" stop-color="#fbd419"/>
      <stop offset="1" stop-color="#feeb17"/>
    </linearGradient>
  </defs>
  <g>
    <path class="cls-1" d="M64.51,16.9L35.23,0h0V24.99l27.4,15.68c3.28-2.27,5.98-5.33,7.84-8.89v-4.55c0-4.26-2.27-8.19-5.96-10.32Z"/>
    <path class="cls-6" d="M0,48.94v5.21c0,4.26,2.27,8.19,5.96,10.32l29.27,16.9v-24.99L7.85,40.71c-3.22,2.09-5.91,4.91-7.85,8.23Z"/>
  </g>
  <g>
    <path class="cls-3" d="M96.4,66.72l-3.33-5.11h2.1l2.15,3.48,2.13-3.48h2.1l-3.31,5.11v3.54h-1.84v-3.54Z"/>
    <path class="cls-3" d="M109.83,61.47c2.62,0,4.53,1.87,4.53,4.47s-1.91,4.47-4.53,4.47-4.51-1.87-4.51-4.47,1.91-4.47,4.51-4.47Zm0,1.63c-1.6,0-2.62,1.22-2.62,2.84s1.02,2.84,2.62,2.84,2.63-1.23,2.63-2.84-1.04-2.84-2.63-2.84Z"/>
    <path class="cls-3" d="M119.55,61.61h1.87v5.14c0,1.21,.66,2.04,2.01,2.04s1.98-.83,1.98-2.04v-5.14h1.87v5.19c0,2.15-1.23,3.62-3.85,3.62s-3.88-1.48-3.88-3.61v-5.2Z"/>
    <path class="cls-3" d="M136.07,67.16h-1.35v3.1h-1.84v-8.65h4.05c1.8,0,2.91,1.18,2.91,2.79s-.96,2.35-1.89,2.57l1.95,3.29h-2.11l-1.7-3.1Zm.58-3.97h-1.93v2.39h1.93c.74,0,1.3-.47,1.3-1.19s-.56-1.19-1.3-1.19Z"/>
    <path class="cls-3" d="M152.33,61.61h4.05c1.88,0,2.91,1.27,2.91,2.79s-1.04,2.76-2.91,2.76h-2.21v3.1h-1.84v-8.65Zm3.8,1.58h-1.96v2.39h1.96c.73,0,1.27-.47,1.27-1.19s-.54-1.19-1.27-1.19Z"/>
    <path class="cls-3" d="M164.32,61.61h6.12v1.58h-4.28v1.88h4.19v1.58h-4.19v2.01h4.28v1.6h-6.12v-8.65Z"/>
    <path class="cls-3" d="M178.97,67.16h-1.35v3.1h-1.84v-8.65h4.05c1.8,0,2.91,1.18,2.91,2.79s-.96,2.35-1.89,2.57l1.95,3.29h-2.11l-1.7-3.1Zm.58-3.97h-1.93v2.39h1.93c.74,0,1.3-.47,1.3-1.19s-.56-1.19-1.3-1.19Z"/>
    <path class="cls-3" d="M188.01,61.61h6.12v1.58h-4.28v1.88h4.19v1.58h-4.19v3.61h-1.84v-8.65Z"/>
    <path class="cls-3" d="M203.41,61.47c2.62,0,4.53,1.87,4.53,4.47s-1.91,4.47-4.53,4.47-4.51-1.87-4.51-4.47,1.91-4.47,4.51-4.47Zm0,1.63c-1.59,0-2.62,1.22-2.62,2.84s1.02,2.84,2.62,2.84,2.63-1.23,2.63-2.84-1.04-2.84-2.63-2.84Z"/>
    <path class="cls-3" d="M216.32,67.16h-1.35v3.1h-1.84v-8.65h4.05c1.8,0,2.91,1.18,2.91,2.79s-.96,2.35-1.89,2.57l1.95,3.29h-2.11l-1.7-3.1Zm.58-3.97h-1.93v2.39h1.93c.74,0,1.3-.47,1.3-1.19s-.56-1.19-1.3-1.19Z"/>
    <path class="cls-3" d="M232.89,64.04l-2.44,6.23h-.8l-2.44-6.23v6.23h-1.84v-8.65h2.58l2.1,5.4,2.1-5.4h2.59v8.65h-1.85v-6.23Z"/>
    <path class="cls-3" d="M245.86,68.77h-3.87l-.54,1.49h-2.02l3.35-8.65h2.31l3.33,8.65h-2.01l-.54-1.49Zm-3.37-1.6h2.87l-1.43-3.97-1.44,3.97Z"/>
    <path class="cls-3" d="M254.96,64.45v5.81h-1.84v-8.65h1.89l4.01,5.6v-5.6h1.84v8.65h-1.78l-4.12-5.81Z"/>
    <path class="cls-3" d="M266.05,65.94c0-2.66,2.01-4.47,4.54-4.47,1.97,0,3.07,1.04,3.68,2.11l-1.58,.78c-.36-.7-1.14-1.26-2.1-1.26-1.5,0-2.65,1.21-2.65,2.84s1.14,2.84,2.65,2.84c.96,0,1.74-.54,2.1-1.26l1.58,.76c-.62,1.08-1.71,2.13-3.68,2.13-2.53,0-4.54-1.82-4.54-4.47Z"/>
    <path class="cls-3" d="M279.28,61.61h6.12v1.58h-4.28v1.88h4.19v1.58h-4.19v2.01h4.28v1.6h-6.12v-8.65Z"/>
    <path class="cls-3" d="M297.95,61.61h4.05c1.88,0,2.91,1.27,2.91,2.79s-1.04,2.76-2.91,2.76h-2.21v3.1h-1.84v-8.65Zm3.8,1.58h-1.96v2.39h1.96c.73,0,1.27-.47,1.27-1.19s-.54-1.19-1.27-1.19Z"/>
    <path class="cls-3" d="M314.49,68.77h-3.87l-.54,1.49h-2.02l3.35-8.65h2.31l3.33,8.65h-2.01l-.54-1.49Zm-3.37-1.6h2.87l-1.43-3.97-1.44,3.97Z"/>
    <path class="cls-3" d="M324.93,67.16h-1.35v3.1h-1.84v-8.65h4.05c1.8,0,2.91,1.18,2.91,2.79s-.96,2.35-1.89,2.57l1.95,3.29h-2.11l-1.7-3.1Zm.58-3.97h-1.93v2.39h1.93c.74,0,1.3-.47,1.3-1.19s-.56-1.19-1.3-1.19Z"/>
    <path class="cls-3" d="M335.84,63.23h-2.53v-1.62h6.9v1.62h-2.52v7.03h-1.85v-7.03Z"/>
    <path class="cls-3" d="M347.13,64.45v5.81h-1.84v-8.65h1.89l4.01,5.6v-5.6h1.84v8.65h-1.78l-4.12-5.81Z"/>
    <path class="cls-3" d="M358.64,61.61h6.12v1.58h-4.28v1.88h4.19v1.58h-4.19v2.01h4.28v1.6h-6.12v-8.65Z"/>
    <path class="cls-3" d="M373.29,67.16h-1.35v3.1h-1.84v-8.65h4.05c1.8,0,2.91,1.18,2.91,2.79s-.96,2.35-1.89,2.57l1.95,3.29h-2.11l-1.7-3.1Zm.58-3.97h-1.93v2.39h1.93c.74,0,1.3-.47,1.3-1.19s-.56-1.19-1.3-1.19Z"/>
  </g>
  <g>
    <path class="cls-3" d="M88.12,29.66c0-12.07,9.13-20.32,20.61-20.32,8.95,0,13.96,4.71,16.73,9.6l-7.19,3.53c-1.65-3.18-5.18-5.71-9.54-5.71-6.83,0-12.02,5.48-12.02,12.9s5.18,12.9,12.02,12.9c4.36,0,7.89-2.47,9.54-5.71l7.19,3.48c-2.83,4.89-7.77,9.66-16.73,9.66-11.49,0-20.61-8.25-20.61-20.32Z"/>
    <path class="cls-3" d="M130.29,9.98h7.48V49.27h-7.48V9.98Z"/>
    <path class="cls-3" d="M144.42,12.16c0-2.47,2.06-4.48,4.48-4.48s4.48,2,4.48,4.48-2,4.48-4.48,4.48-4.48-2-4.48-4.48Zm.77,8.66h7.48v28.45h-7.48V20.82Z"/>
    <path class="cls-3" d="M173.34,20.12c5.83,0,9.36,2.53,11.25,5.12l-4.89,4.59c-1.35-2-3.42-3.06-6.01-3.06-4.54,0-7.72,3.3-7.72,8.25s3.18,8.3,7.72,8.3c2.59,0,4.65-1.18,6.01-3.06l4.89,4.54c-1.88,2.65-5.42,5.18-11.25,5.18-8.78,0-15.08-6.18-15.08-14.96s6.3-14.9,15.08-14.9Z"/>
    <path class="cls-3" d="M200.37,38.32l-3.42,3.65v7.3h-7.48V9.98h7.48v23.5l10.78-12.66h9.19l-11.25,12.9,11.6,15.55h-9.36l-7.54-10.96Z"/>
    <path class="cls-2" d="M222.16,9.98h12.54c12.19,0,19.85,8.89,19.85,19.67s-7.66,19.61-19.85,19.61h-12.54V9.98Zm12.54,36.22c10.37,0,16.32-7.36,16.32-16.55s-5.89-16.61-16.32-16.61h-9.19V46.21h9.19Z"/>
    <path class="cls-2" d="M274.87,20.12c8.66,0,13.43,6.89,13.43,15.08v.82h-23.8c.29,6.18,4.42,11.31,11.07,11.31,3.65,0,6.89-1.36,9.37-3.95l1.59,2c-2.83,2.95-6.42,4.59-11.13,4.59-8.3,0-14.25-6.18-14.25-14.96,0-8.25,5.83-14.9,13.72-14.9Zm-10.37,13.49h20.67c-.06-4.83-3.24-10.84-10.37-10.84-6.71,0-10.07,5.89-10.31,10.84Z"/>
    <path class="cls-2" d="M314.27,45.91c-2.53,2.77-5.71,4.06-9.66,4.06-4.89,0-9.95-3.36-9.95-9.48s5.01-9.36,9.95-9.36c3.95,0,7.13,1.24,9.66,4v-5.77c0-4.18-3.42-6.54-7.66-6.54-3.53,0-6.3,1.24-8.89,4.18l-1.71-2.06c2.95-3.24,6.24-4.83,10.9-4.83,5.83,0,10.42,2.77,10.42,9.13v20.03h-3.06v-3.36Zm0-8.48c-2-2.59-5.18-3.95-8.6-3.95-4.71,0-7.78,3.06-7.78,7.07s3.06,7.01,7.78,7.01c3.42,0,6.6-1.3,8.6-3.89v-6.24Z"/>
    <path class="cls-2" d="M326.87,9.98h3.06V49.27h-3.06V9.98Z"/>
    <path class="cls-2" d="M351.55,20.12c8.66,0,13.43,6.89,13.43,15.08v.82h-23.8c.29,6.18,4.42,11.31,11.07,11.31,3.65,0,6.89-1.36,9.37-3.95l1.59,2c-2.83,2.95-6.42,4.59-11.13,4.59-8.3,0-14.25-6.18-14.25-14.96,0-8.25,5.83-14.9,13.72-14.9Zm-10.37,13.49h20.67c-.06-4.83-3.24-10.84-10.37-10.84-6.71,0-10.07,5.89-10.31,10.84Z"/>
    <path class="cls-2" d="M372.87,20.82h3.06v4.89c2.41-3.18,5.65-5.48,9.6-5.48v3.36c-.53-.06-.94-.12-1.53-.12-2.89,0-6.77,2.59-8.07,5.07v20.73h-3.06V20.82Z"/>
  </g>
  <path class="cls-4" d="M35.13,.06L5.96,16.9C2.27,19.03,0,22.97,0,27.23v21.71c1.94-3.32,4.63-6.14,7.85-8.23l1.7-1.02,16.61-9.5,9.08-5.19V0l-.11,.06Z"/>
  <path class="cls-5" d="M62.63,40.67l-3.41,1.98-15.52,8.88-8.46,4.84v24.99h0l.12-.07,29.15-16.83c3.69-2.13,5.96-6.07,5.96-10.32V31.78c-1.85,3.57-4.55,6.62-7.84,8.89Z"/>
</svg>