<?xml version="1.0" encoding="utf-8"?>
<!-- Generator: Adobe Illustrator 22.0.1, SVG Export Plug-In . SVG Version: 6.00 Build 0)  -->
<!DOCTYPE svg PUBLIC "-//W3C//DTD SVG 1.1//EN" "http://www.w3.org/Graphics/SVG/1.1/DTD/svg11.dtd">
<svg version="1.1" id="Layer_1" xmlns="http://www.w3.org/2000/svg" xmlns:xlink="http://www.w3.org/1999/xlink" x="0px" y="0px"
	 viewBox="0 0 500 196.3" style="enable-background:new 0 0 500 196.3;" xml:space="preserve">
<style type="text/css">
	.st0{fill:#ffffff;}
	.st1{fill:#C9D400;}
	.st2{fill:#ffffff;}
</style>
<g>
	<path class="st0" d="M178.1,78.1c-3.5-2.6-5.3-6.6-5.6-12c0-1.1-0.1-2.8-0.1-5.2c0-2.4,0-4.2,0.1-5.3c0.2-5.2,2.1-9.2,5.7-11.9
		c3.6-2.7,8.2-4,14-4c3.5,0,6.8,0.5,9.7,1.6c3,1.1,5.4,2.7,7.2,5c1.9,2.3,2.8,5.1,2.8,8.5c0,0.4-0.1,0.7-0.4,0.9S211,56,210.7,56
		h-12c-0.6,0-1.1-0.1-1.4-0.4c-0.3-0.2-0.6-0.7-0.8-1.4c-0.4-1.2-1-2-1.7-2.5c-0.7-0.5-1.6-0.7-2.7-0.7c-1.4,0-2.4,0.4-3.2,1.1
		c-0.7,0.7-1.1,1.9-1.2,3.7c0,1.1-0.1,2.7-0.1,4.9s0,3.9,0.1,5c0,1.7,0.4,2.9,1.2,3.7c0.7,0.7,1.8,1.1,3.2,1.1
		c2.2,0,3.7-1.1,4.4-3.2c0.2-0.7,0.4-1.1,0.7-1.4c0.3-0.2,0.8-0.4,1.4-0.4h12c0.4,0,0.7,0.1,0.9,0.4c0.3,0.3,0.4,0.6,0.4,0.9
		c0,3.4-1,6.2-2.8,8.5c-1.9,2.3-4.3,3.9-7.2,5c-3,1.1-6.2,1.6-9.7,1.6C186.2,82,181.5,80.7,178.1,78.1"/>
	<path class="st0" d="M219.6,78c-3.4-2.7-5.1-6.7-5.1-12.1v-24c0-0.4,0.2-0.8,0.5-1.1c0.3-0.3,0.7-0.5,1.1-0.5h11.5
		c0.4,0,0.8,0.2,1.1,0.5c0.3,0.3,0.5,0.7,0.5,1.1v23.8c0,1.5,0.4,2.6,1.1,3.4c0.7,0.8,1.8,1.1,3.3,1.1c1.4,0,2.5-0.4,3.3-1.1
		c0.7-0.8,1.1-1.9,1.1-3.4V41.9c0-0.4,0.2-0.8,0.5-1.1c0.3-0.3,0.7-0.5,1.1-0.5h11.5c0.4,0,0.8,0.2,1.1,0.5c0.3,0.3,0.5,0.7,0.5,1.1
		v24c0,5.4-1.7,9.4-5.1,12.1c-3.4,2.7-8,4-13.9,4C227.7,82,223,80.6,219.6,78"/>
	<path class="st0" d="M263.5,80.3c-2.9-1.1-5-2.7-6.5-4.6c-1.4-1.9-2.2-4-2.3-6.3c0-0.4,0.1-0.7,0.4-0.9s0.6-0.4,0.9-0.4h11.2
		c0.5,0,1,0.1,1.3,0.2c0.3,0.1,0.7,0.4,1.2,0.8c1.1,0.9,2.6,1.4,4.3,1.4c1.3,0,2.4-0.1,3.2-0.4c0.8-0.3,1.2-0.7,1.2-1.2
		c0-0.7-0.5-1.2-1.6-1.6c-1.1-0.4-3.1-0.8-6-1.1c-10.1-1.3-15.2-5.6-15.2-12.9c0-2.6,0.8-5,2.3-7c1.5-2.1,3.6-3.6,6.3-4.8
		c2.7-1.1,5.8-1.7,9.3-1.7c3.7,0,6.9,0.6,9.7,1.9c2.8,1.3,4.9,2.8,6.4,4.7c1.5,1.9,2.3,3.7,2.4,5.5c0,0.4-0.1,0.7-0.4,0.9
		c-0.3,0.3-0.5,0.4-0.9,0.4h-11.7c-0.5,0-1-0.1-1.3-0.2c-0.3-0.1-0.7-0.4-1.1-0.7c-0.8-0.7-1.9-1.1-3.1-1.1c-1.9,0-2.8,0.5-2.8,1.6
		c0,0.6,0.5,1.1,1.4,1.5c0.9,0.4,2.6,0.7,5.1,1.1c3.9,0.5,7.1,1.3,9.4,2.3c2.4,1,4.1,2.4,5.2,4.1c1.1,1.7,1.6,3.9,1.6,6.4
		c0,2.8-0.8,5.2-2.5,7.3c-1.7,2.1-4,3.7-7,4.8c-3,1.1-6.3,1.7-10,1.7C269.9,82,266.4,81.4,263.5,80.3"/>
	<path class="st0" d="M306.4,80.9c-0.3-0.3-0.5-0.7-0.5-1.1V52.9h-9.7c-0.4,0-0.8-0.2-1.1-0.5c-0.3-0.3-0.5-0.7-0.5-1.1v-9.5
		c0-0.4,0.2-0.8,0.5-1.1c0.3-0.3,0.7-0.5,1.1-0.5h34.4c0.4,0,0.8,0.2,1.1,0.5c0.3,0.3,0.5,0.7,0.5,1.1v9.5c0,0.4-0.2,0.8-0.5,1.1
		c-0.3,0.3-0.7,0.5-1.1,0.5h-9.7v26.9c0,0.4-0.2,0.8-0.5,1.1c-0.3,0.3-0.7,0.5-1.1,0.5h-11.7C307.1,81.4,306.7,81.2,306.4,80.9"/>
	<path class="st0" d="M356.5,69.3c0.8-0.8,1.2-2,1.2-3.6c0.1-2.3,0.1-3.9,0.1-5c0-1.1,0-2.8-0.1-4.9c0-1.6-0.5-2.8-1.2-3.6
		c-0.8-0.8-1.8-1.2-3.1-1.2c-1.3,0-2.3,0.4-3.1,1.2c-0.8,0.8-1.2,2-1.2,3.6c0,1.1-0.1,2.7-0.1,4.9c0,2.2,0,3.9,0.1,5
		c0,1.6,0.4,2.8,1.2,3.6c0.8,0.8,1.8,1.2,3.1,1.2C354.7,70.5,355.7,70.1,356.5,69.3 M339.3,77.9c-3.5-2.7-5.3-6.6-5.6-11.8
		c0-1.1-0.1-2.8-0.1-5.1c0-2.4,0-4.1,0.1-5.2c0.1-3.4,1-6.3,2.7-8.7c1.7-2.4,3.9-4.3,6.8-5.5c2.9-1.3,6.3-1.9,10.1-1.9
		c3.8,0,7.2,0.6,10.1,1.9c2.9,1.3,5.2,3.1,6.8,5.5c1.7,2.4,2.6,5.3,2.7,8.7c0.1,2.2,0.1,3.9,0.1,5.2c0,1.3,0,3-0.1,5.1
		c-0.2,5.2-2.1,9.1-5.6,11.8c-3.5,2.7-8.2,4.1-14,4.1C347.5,82,342.8,80.6,339.3,77.9"/>
	<path class="st0" d="M376.5,80.9c-0.3-0.3-0.5-0.7-0.5-1.1V41.9c0-0.4,0.2-0.8,0.5-1.1c0.3-0.3,0.7-0.5,1.1-0.5h9.3
		c1.1,0,1.9,0.5,2.5,1.6l8.5,14.1l8.5-14.1c0.6-1.1,1.4-1.6,2.5-1.6h9.3c0.4,0,0.8,0.2,1.1,0.5c0.3,0.3,0.5,0.7,0.5,1.1v37.9
		c0,0.4-0.2,0.8-0.5,1.1c-0.3,0.3-0.7,0.5-1.1,0.5h-10.6c-0.4,0-0.8-0.2-1.1-0.5c-0.3-0.3-0.5-0.7-0.5-1.1V63.7l-3.9,6.3
		c-0.3,0.4-0.6,0.8-0.9,1.1c-0.3,0.3-0.8,0.4-1.3,0.4h-4.1c-0.5,0-0.9-0.1-1.3-0.4c-0.3-0.3-0.6-0.6-0.9-1.1l-3.9-6.3v16.1
		c0,0.4-0.2,0.8-0.5,1.1c-0.3,0.3-0.7,0.5-1.1,0.5h-10.6C377.2,81.4,376.8,81.2,376.5,80.9"/>
	<path class="st0" d="M423.8,80.9c-0.3-0.3-0.5-0.7-0.5-1.1V41.9c0-0.4,0.2-0.8,0.5-1.1c0.3-0.3,0.7-0.5,1.1-0.5h30.1
		c0.4,0,0.8,0.2,1.1,0.5c0.3,0.3,0.5,0.7,0.5,1.1v8.3c0,0.4-0.2,0.8-0.5,1.1c-0.3,0.3-0.7,0.5-1.1,0.5h-17.6v3.7h16.3
		c0.4,0,0.8,0.2,1.1,0.5c0.3,0.3,0.5,0.7,0.5,1.1v7.6c0,0.4-0.2,0.8-0.5,1.1c-0.3,0.3-0.7,0.5-1.1,0.5h-16.3v3.7h18.1
		c0.4,0,0.8,0.2,1.1,0.5c0.3,0.3,0.5,0.7,0.5,1.1v8.3c0,0.4-0.2,0.8-0.5,1.1c-0.3,0.3-0.7,0.5-1.1,0.5h-30.6
		C424.5,81.4,424.1,81.2,423.8,80.9"/>
	<path class="st0" d="M478.6,57.4c0.9,0,1.5-0.3,2-0.9c0.5-0.6,0.7-1.3,0.7-2.1c0-0.9-0.2-1.6-0.7-2.3c-0.5-0.6-1.1-1-2-1h-4.3v6.2
		H478.6z M460.1,80.9c-0.3-0.3-0.5-0.7-0.5-1.1V41.9c0-0.4,0.2-0.8,0.5-1.1c0.3-0.3,0.7-0.5,1.1-0.5h17.4c5.6,0,10,1.3,13.2,3.8
		c3.2,2.5,4.8,6,4.8,10.5c0,2.5-0.6,4.8-1.7,6.7c-1.1,1.9-2.7,3.5-4.6,4.8l7.2,13.4c0.1,0.2,0.2,0.5,0.2,0.6c0,0.4-0.1,0.7-0.4,0.9
		c-0.3,0.3-0.6,0.4-0.9,0.4h-12c-0.7,0-1.3-0.2-1.7-0.5c-0.4-0.3-0.7-0.7-0.9-1.1l-5-11.2h-2.4v11.2c0,0.4-0.2,0.8-0.5,1.1
		c-0.3,0.3-0.7,0.5-1.1,0.5h-11.5C460.7,81.4,460.4,81.2,460.1,80.9"/>
	<path class="st0" d="M195.2,113c0.8,0,1.6-0.3,2.2-0.9c0.7-0.6,1-1.6,1-2.8c0-1.1-0.3-2-0.8-2.8c-0.5-0.8-1.3-1.2-2.5-1.2h-4.9v7.8
		H195.2z M173,140.7c-0.4-0.4-0.6-0.8-0.6-1.3V94.1c0-0.5,0.2-1,0.6-1.3c0.4-0.4,0.8-0.6,1.3-0.6h21.2c6.5,0,11.7,1.4,15.4,4.3
		c3.8,2.9,5.6,7.2,5.6,12.8c0,5.6-1.9,9.8-5.6,12.5c-3.7,2.7-8.9,4.1-15.5,4.1h-4.9v13.4c0,0.5-0.2,1-0.6,1.3
		c-0.4,0.4-0.8,0.6-1.3,0.6h-14.4C173.8,141.2,173.4,141,173,140.7"/>
	<path class="st0" d="M242.3,112.6c1,0,1.8-0.3,2.4-1c0.6-0.7,0.8-1.5,0.8-2.6c0-1-0.3-1.9-0.8-2.7c-0.5-0.8-1.3-1.2-2.4-1.2h-5.1
		v7.4H242.3z M220.3,140.7c-0.4-0.4-0.6-0.8-0.6-1.3V94.1c0-0.5,0.2-1,0.6-1.3c0.4-0.4,0.8-0.6,1.3-0.6h20.7c6.7,0,12,1.5,15.8,4.5
		c3.8,3,5.7,7.2,5.7,12.5c0,3-0.7,5.7-2,8c-1.4,2.3-3.2,4.2-5.5,5.7l8.6,16c0.1,0.3,0.2,0.5,0.2,0.8c0,0.4-0.2,0.8-0.5,1.1
		c-0.3,0.3-0.7,0.5-1.1,0.5h-14.4c-0.8,0-1.5-0.2-2-0.6c-0.5-0.4-0.8-0.8-1-1.3l-6-13.4h-2.9v13.4c0,0.5-0.2,1-0.6,1.3
		c-0.4,0.4-0.8,0.6-1.3,0.6h-13.7C221.1,141.2,220.6,141,220.3,140.7"/>
	<path class="st0" d="M293,126.9c0.9-0.9,1.4-2.4,1.4-4.3c0.1-2.7,0.1-4.7,0.1-6c0-1.4,0-3.3-0.1-5.8c0-1.9-0.5-3.3-1.5-4.3
		c-0.9-0.9-2.2-1.4-3.7-1.4c-1.5,0-2.8,0.5-3.7,1.4c-0.9,0.9-1.4,2.4-1.5,4.3c0,1.3-0.1,3.2-0.1,5.8c0,2.6,0,4.6,0.1,6
		c0,1.9,0.5,3.3,1.4,4.3c0.9,0.9,2.2,1.4,3.7,1.4C290.8,128.3,292.1,127.8,293,126.9 M272.5,137.1c-4.2-3.2-6.4-7.9-6.7-14.1
		c0-1.3-0.1-3.3-0.1-6.1c0-2.8,0-4.9,0.1-6.2c0.1-4,1.2-7.5,3.2-10.4c2-2.9,4.7-5.1,8.2-6.6c3.5-1.5,7.5-2.2,12-2.2
		c4.6,0,8.6,0.7,12,2.2c3.5,1.5,6.2,3.7,8.2,6.6c2,2.9,3,6.4,3.2,10.4c0.1,2.6,0.1,4.7,0.1,6.2s0,3.6-0.1,6.1
		c-0.3,6.2-2.5,10.9-6.7,14.1c-4.2,3.2-9.7,4.8-16.7,4.8C282.3,141.9,276.7,140.3,272.5,137.1"/>
	<path class="st0" d="M328.6,140.7c-0.4-0.4-0.6-0.8-0.6-1.3v-32.1h-11.6c-0.5,0-1-0.2-1.3-0.6c-0.4-0.4-0.6-0.8-0.6-1.3V94.1
		c0-0.5,0.2-1,0.6-1.3c0.4-0.4,0.8-0.6,1.3-0.6h41.1c0.5,0,1,0.2,1.3,0.6c0.4,0.4,0.6,0.8,0.6,1.3v11.3c0,0.5-0.2,1-0.6,1.3
		c-0.4,0.4-0.8,0.6-1.3,0.6h-11.6v32.1c0,0.5-0.2,1-0.6,1.3c-0.4,0.4-0.8,0.6-1.3,0.6h-14C329.4,141.2,329,141,328.6,140.7"/>
	<path class="st0" d="M362.9,140.7c-0.4-0.4-0.6-0.8-0.6-1.3V94.1c0-0.5,0.2-1,0.6-1.3c0.4-0.4,0.8-0.6,1.3-0.6h35.9
		c0.5,0,1,0.2,1.3,0.6c0.4,0.4,0.6,0.8,0.6,1.3v9.9c0,0.5-0.2,1-0.6,1.3c-0.4,0.4-0.8,0.6-1.3,0.6h-21v4.4h19.5c0.5,0,1,0.2,1.3,0.6
		c0.4,0.4,0.6,0.8,0.6,1.3v9.1c0,0.5-0.2,1-0.6,1.3c-0.4,0.4-0.8,0.6-1.3,0.6h-19.5v4.4h21.6c0.5,0,1,0.2,1.3,0.6
		c0.4,0.4,0.6,0.8,0.6,1.3v9.9c0,0.5-0.2,1-0.6,1.3c-0.4,0.4-0.8,0.6-1.3,0.6h-36.5C363.7,141.2,363.3,141,362.9,140.7"/>
	<path class="st0" d="M411.3,137.3c-4.2-3.1-6.4-7.9-6.7-14.3c0-1.3-0.1-3.3-0.1-6.2c0-2.9,0-5,0.1-6.3c0.3-6.3,2.5-11,6.8-14.2
		c4.3-3.2,9.8-4.8,16.7-4.8c4.2,0,8.1,0.6,11.6,1.9c3.5,1.3,6.4,3.2,8.6,5.9c2.2,2.7,3.3,6.1,3.4,10.1c0,0.4-0.2,0.8-0.5,1.1
		c-0.3,0.3-0.7,0.5-1.1,0.5h-14.3c-0.7,0-1.3-0.1-1.6-0.4c-0.3-0.3-0.7-0.8-0.9-1.6c-0.5-1.4-1.2-2.4-2-2.9
		c-0.8-0.6-1.9-0.8-3.2-0.8c-1.6,0-2.9,0.4-3.8,1.3c-0.9,0.9-1.4,2.3-1.4,4.4c0,1.3-0.1,3.2-0.1,5.8c0,2.6,0,4.6,0.1,6
		c0,2.1,0.5,3.5,1.4,4.4c0.9,0.9,2.1,1.3,3.8,1.3c2.7,0,4.4-1.3,5.3-3.8c0.2-0.8,0.5-1.3,0.9-1.6c0.4-0.3,0.9-0.4,1.7-0.4h14.3
		c0.4,0,0.8,0.1,1.1,0.5c0.3,0.3,0.5,0.7,0.5,1.1c0,4.1-1.2,7.4-3.4,10.1c-2.2,2.7-5.1,4.7-8.6,5.9c-3.5,1.3-7.4,1.9-11.6,1.9
		C421,141.9,415.4,140.4,411.3,137.3"/>
	<path class="st0" d="M467.2,140.7c-0.4-0.4-0.6-0.8-0.6-1.3v-32.1h-11.6c-0.5,0-1-0.2-1.3-0.6c-0.4-0.4-0.6-0.8-0.6-1.3V94.1
		c0-0.5,0.2-1,0.6-1.3c0.4-0.4,0.8-0.6,1.3-0.6h41c0.5,0,1,0.2,1.3,0.6c0.4,0.4,0.6,0.8,0.6,1.3v11.3c0,0.5-0.2,1-0.6,1.3
		c-0.4,0.4-0.8,0.6-1.3,0.6h-11.6v32.1c0,0.5-0.2,1-0.6,1.3c-0.4,0.4-0.8,0.6-1.3,0.6h-14C468.1,141.2,467.6,141,467.2,140.7"/>
	<path class="st1" d="M179.4,192.3l-6.9-37.7l-0.1-0.5c0-0.4,0.1-0.6,0.4-0.9c0.2-0.2,0.5-0.4,0.9-0.4h5.3c0.5,0,0.9,0.1,1.1,0.3
		c0.2,0.2,0.4,0.5,0.5,0.9l4.9,26.5l5.2-17.1c0.4-1,1-1.5,1.9-1.5h3.2c0.5,0,0.9,0.1,1.2,0.4c0.3,0.3,0.5,0.6,0.6,1l5.3,17.1
		l4.8-26.5c0.1-0.8,0.7-1.2,1.6-1.2h5.3c0.3,0,0.6,0.1,0.8,0.4c0.2,0.2,0.4,0.5,0.4,0.9c0,0.2,0,0.4-0.1,0.5l-6.9,37.7
		c-0.1,0.6-0.3,1-0.7,1.3c-0.4,0.3-0.9,0.5-1.4,0.5h-4c-0.5,0-1-0.1-1.4-0.4c-0.4-0.3-0.6-0.6-0.7-1l-6.6-19.5l-6.6,19.5
		c-0.3,1-1,1.5-2.1,1.5h-4C180.4,194.1,179.7,193.5,179.4,192.3"/>
	<path class="st1" d="M230.9,179h13.3l-6.7-18.1L230.9,179z M218.3,193.7c-0.2-0.2-0.4-0.5-0.4-0.9l0.1-0.5l14.1-38
		c0.4-1,1.1-1.5,2.1-1.5h6.5c1,0,1.7,0.5,2.1,1.5l14.1,38l0.1,0.5c0,0.4-0.1,0.6-0.4,0.9c-0.3,0.2-0.5,0.4-0.9,0.4h-5.2
		c-0.8,0-1.4-0.4-1.7-1.1l-2.7-7.1h-17.4l-2.7,7.1c-0.3,0.7-0.9,1.1-1.7,1.1h-5.2C218.9,194.1,218.6,193.9,218.3,193.7"/>
	<path class="st1" d="M280.3,171.8c2.4,0,4.1-0.5,5.3-1.6c1.2-1,1.8-2.6,1.8-4.6c0-2-0.6-3.5-1.8-4.6c-1.2-1.1-2.9-1.6-5.3-1.6h-8.2
		v12.4H280.3z M264.2,193.6c-0.3-0.3-0.4-0.6-0.4-1v-38.3c0-0.4,0.1-0.8,0.4-1.1c0.3-0.3,0.6-0.4,1-0.4h15.2c4.8,0,8.6,1.1,11.3,3.4
		c2.7,2.2,4.1,5.4,4.1,9.5c0,2.9-0.7,5.3-2.1,7.2c-1.4,1.9-3.3,3.3-5.8,4.2l8.5,15c0.1,0.2,0.2,0.5,0.2,0.6c0,0.4-0.1,0.6-0.4,0.9
		c-0.3,0.2-0.5,0.4-0.9,0.4h-5.4c-0.6,0-1.1-0.1-1.5-0.4c-0.4-0.3-0.7-0.7-0.9-1.1l-7.5-14h-8.1v14.1c0,0.4-0.1,0.7-0.4,1
		c-0.3,0.3-0.6,0.4-1.1,0.4h-5.4C264.8,194.1,264.5,193.9,264.2,193.6"/>
	<path class="st1" d="M321.1,171.8c2.4,0,4.1-0.5,5.3-1.6c1.2-1,1.8-2.6,1.8-4.6c0-2-0.6-3.5-1.8-4.6c-1.2-1.1-2.9-1.6-5.3-1.6h-8.2
		v12.4H321.1z M305,193.6c-0.3-0.3-0.4-0.6-0.4-1v-38.3c0-0.4,0.1-0.8,0.4-1.1c0.3-0.3,0.6-0.4,1-0.4h15.2c4.8,0,8.6,1.1,11.3,3.4
		c2.7,2.2,4.1,5.4,4.1,9.5c0,2.9-0.7,5.3-2.1,7.2c-1.4,1.9-3.3,3.3-5.8,4.2l8.5,15c0.1,0.2,0.2,0.5,0.2,0.6c0,0.4-0.1,0.6-0.4,0.9
		c-0.3,0.2-0.5,0.4-0.9,0.4h-5.4c-0.6,0-1.1-0.1-1.5-0.4c-0.4-0.3-0.7-0.7-0.9-1.1l-7.5-14h-8.1v14.1c0,0.4-0.1,0.7-0.4,1
		c-0.3,0.3-0.6,0.4-1.1,0.4H306C305.7,194.1,305.3,193.9,305,193.6"/>
	<path class="st1" d="M354.7,179H368l-6.7-18.1L354.7,179z M342.1,193.7c-0.2-0.2-0.4-0.5-0.4-0.9l0.1-0.5l14.1-38
		c0.4-1,1.1-1.5,2.1-1.5h6.5c1,0,1.7,0.5,2.1,1.5l14.1,38l0.1,0.5c0,0.4-0.1,0.6-0.4,0.9c-0.3,0.2-0.5,0.4-0.9,0.4h-5.2
		c-0.8,0-1.4-0.4-1.7-1.1l-2.7-7.1h-17.4l-2.7,7.1c-0.3,0.7-0.9,1.1-1.7,1.1H343C342.6,194.1,342.3,193.9,342.1,193.7"/>
	<path class="st1" d="M386.7,193.6c-0.3-0.3-0.4-0.6-0.4-1v-38.3c0-0.4,0.1-0.8,0.4-1.1c0.3-0.3,0.6-0.4,1-0.4h4.6
		c0.7,0,1.3,0.3,1.7,1l16.8,26.1v-25.7c0-0.4,0.1-0.8,0.4-1.1c0.3-0.3,0.6-0.4,1-0.4h5.1c0.4,0,0.8,0.1,1.1,0.4
		c0.3,0.3,0.4,0.6,0.4,1.1v38.3c0,0.4-0.1,0.8-0.4,1.1c-0.3,0.3-0.6,0.4-1,0.4h-4.6c-0.8,0-1.4-0.3-1.8-1l-16.8-25.5v25.1
		c0,0.4-0.1,0.7-0.4,1c-0.3,0.3-0.6,0.4-1,0.4h-5.1C387.4,194.1,387,193.9,386.7,193.6"/>
	<path class="st1" d="M437.4,193.6c-0.3-0.3-0.4-0.6-0.4-1v-32.4h-10.9c-0.4,0-0.7-0.1-1-0.4c-0.3-0.3-0.4-0.6-0.4-1.1v-4.4
		c0-0.4,0.1-0.8,0.4-1.1c0.3-0.3,0.6-0.4,1-0.4h30.1c0.4,0,0.8,0.1,1.1,0.4c0.3,0.3,0.4,0.6,0.4,1.1v4.4c0,0.4-0.1,0.8-0.4,1.1
		c-0.3,0.3-0.6,0.4-1.1,0.4h-10.8v32.4c0,0.4-0.1,0.7-0.4,1c-0.3,0.3-0.6,0.4-1,0.4h-5.5C438,194.1,437.7,193.9,437.4,193.6"/>
	<path class="st1" d="M476,193.6c-0.3-0.3-0.4-0.6-0.4-1v-13.2l-14-24.7c-0.1-0.4-0.2-0.6-0.2-0.6c0-0.4,0.1-0.6,0.4-0.9
		c0.3-0.2,0.5-0.4,0.9-0.4h5.3c0.7,0,1.4,0.4,1.8,1.1l9.9,17.1l9.9-17.1c0.2-0.3,0.4-0.5,0.7-0.8c0.3-0.2,0.7-0.4,1.1-0.4h5.3
		c0.4,0,0.6,0.1,0.9,0.4c0.2,0.2,0.4,0.5,0.4,0.9c0,0.2-0.1,0.5-0.2,0.6l-13.9,24.7v13.2c0,0.4-0.1,0.8-0.4,1
		c-0.3,0.3-0.6,0.4-1.1,0.4H477C476.7,194.1,476.3,193.9,476,193.6"/>
</g>
<polygon class="st2" points="2.7,161.6 70.2,115.7 137.7,161.6 137.7,194.3 70.2,148.5 2.7,194.3 "/>
<polygon class="st2" points="2.7,123.7 70.2,77.8 137.7,123.7 137.7,156.5 70.2,110.6 2.7,156.5 "/>
<polygon class="st2" points="2.7,85.9 70.2,40 137.7,85.9 137.7,118.6 70.2,72.8 2.7,118.6 "/>
<polygon class="st2" points="2.7,48 70.2,2.1 137.7,48 137.7,80.8 70.2,34.9 2.7,80.8 "/>
</svg>
