<svg id="evolution-funding-logo" xmlns="http://www.w3.org/2000/svg" viewBox="0 0 477.9 116.1" width="477.9" height="116.1">
	<polygon fill="#010101" points="162,27.5 162,35.6 143.3,35.6 143.3,46.3 157.6,46.3 157.6,54.1 143.3,54.1 143.3,65 162,65 162,73.1 
		132.6,73.1 132.6,27.5 "/>
	<path fill="#010101" d="M164.3,27.5h8.5c0.9,0,1.7,0.2,2.3,0.6c0.6,0.4,1,1,1.3,1.7l8.8,24.4c0.4,1.1,0.8,2.2,1.2,3.5
		c0.4,1.3,0.8,2.6,1.1,3.9c0.3-1.4,0.6-2.7,1-3.9c0.4-1.3,0.8-2.4,1.1-3.5l8.8-24.4c0.2-0.6,0.6-1.1,1.2-1.6c0.6-0.5,1.3-0.7,2.2-0.7
		h8.6l-18.3,45.6h-9.6L164.3,27.5z"/>
	<path fill="#010101" d="M244,50.3c0-2.3-0.3-4.3-0.9-6.1c-0.6-1.8-1.4-3.3-2.5-4.6c-1.1-1.3-2.4-2.2-4-2.9c-1.6-0.7-3.4-1-5.4-1
		c-2,0-3.9,0.3-5.5,1c-1.6,0.7-2.9,1.6-4,2.9c-1.1,1.3-1.9,2.8-2.5,4.6c-0.6,1.8-0.9,3.8-0.9,6.1c0,2.3,0.3,4.3,0.9,6.1
		c0.6,1.8,1.4,3.3,2.5,4.6c1.1,1.3,2.4,2.2,4,2.9c1.6,0.7,3.4,1,5.5,1c2,0,3.8-0.3,5.4-1c1.6-0.7,2.9-1.6,4-2.9
		c1.1-1.3,1.9-2.8,2.5-4.6C243.7,54.6,244,52.6,244,50.3 M254.9,50.3c0,3.3-0.6,6.4-1.7,9.2c-1.1,2.8-2.7,5.3-4.8,7.4
		c-2.1,2.1-4.6,3.7-7.5,4.9c-2.9,1.2-6.1,1.8-9.7,1.8c-3.6,0-6.8-0.6-9.7-1.8c-2.9-1.2-5.4-2.8-7.5-4.9c-2.1-2.1-3.7-4.6-4.8-7.4
		c-1.1-2.8-1.7-5.9-1.7-9.2c0-3.3,0.6-6.4,1.7-9.2c1.1-2.8,2.7-5.3,4.8-7.4c2.1-2.1,4.6-3.7,7.5-4.9c2.9-1.2,6.2-1.8,9.7-1.8
		c3.5,0,6.8,0.6,9.7,1.8c2.9,1.2,5.4,2.8,7.5,4.9c2.1,2.1,3.7,4.6,4.8,7.4C254.3,43.9,254.9,47,254.9,50.3"/>
	<polygon fill="#010101" points="269.3,64.7 286.2,64.7 286.2,73.1 258.7,73.1 258.7,27.5 269.3,27.5 "/>
	<path fill="#010101" d="M307.7,64.7c1.4,0,2.7-0.2,3.8-0.7c1.1-0.5,2.1-1.1,2.8-2c0.8-0.9,1.4-1.9,1.8-3.2c0.4-1.3,0.6-2.7,0.6-4.3v-27
		h10.6v27c0,2.8-0.5,5.4-1.4,7.7c-0.9,2.3-2.2,4.4-3.9,6c-1.7,1.7-3.7,3-6.2,3.9c-2.4,0.9-5.1,1.4-8.2,1.4c-3,0-5.8-0.5-8.2-1.4
		c-2.4-0.9-4.5-2.3-6.2-3.9c-1.7-1.7-3-3.7-3.9-6c-0.9-2.3-1.3-4.9-1.3-7.7v-27h10.6v27c0,1.6,0.2,3,0.6,4.3c0.4,1.3,1,2.3,1.8,3.2
		c0.8,0.9,1.7,1.6,2.8,2C305,64.5,306.2,64.7,307.7,64.7"/>
	<polygon fill="#010101" points="367.3,27.5 367.3,35.9 354.5,35.9 354.5,73.1 343.9,73.1 343.9,35.9 331,35.9 331,27.5 "/>
	<rect x="371.4" y="27.5" fill="#010101" width="10.6" height="45.6"/>
	<path fill="#010101" d="M423.4,50.3c0-2.3-0.3-4.3-0.9-6.1c-0.6-1.8-1.4-3.3-2.5-4.6c-1.1-1.3-2.4-2.2-4-2.9c-1.6-0.7-3.4-1-5.4-1
		c-2,0-3.9,0.3-5.5,1c-1.6,0.7-2.9,1.6-4,2.9c-1.1,1.3-1.9,2.8-2.5,4.6c-0.6,1.8-0.9,3.8-0.9,6.1c0,2.3,0.3,4.3,0.9,6.1
		c0.6,1.8,1.4,3.3,2.5,4.6c1.1,1.3,2.4,2.2,4,2.9c1.6,0.7,3.4,1,5.5,1c2,0,3.8-0.3,5.4-1c1.6-0.7,2.9-1.6,4-2.9
		c1.1-1.3,1.9-2.8,2.5-4.6C423.1,54.6,423.4,52.6,423.4,50.3 M434.3,50.3c0,3.3-0.6,6.4-1.7,9.2c-1.1,2.8-2.7,5.3-4.8,7.4
		c-2.1,2.1-4.6,3.7-7.5,4.9c-2.9,1.2-6.1,1.8-9.7,1.8c-3.6,0-6.8-0.6-9.7-1.8c-2.9-1.2-5.4-2.8-7.5-4.9c-2.1-2.1-3.7-4.6-4.8-7.4
		c-1.1-2.8-1.7-5.9-1.7-9.2c0-3.3,0.6-6.4,1.7-9.2c1.1-2.8,2.7-5.3,4.8-7.4c2.1-2.1,4.6-3.7,7.5-4.9c2.9-1.2,6.2-1.8,9.7-1.8
		c3.5,0,6.8,0.6,9.7,1.8c2.9,1.2,5.4,2.8,7.5,4.9c2.1,2.1,3.7,4.6,4.8,7.4C433.7,43.9,434.3,47,434.3,50.3"/>
	<path fill="#010101" d="M444.8,27.5c0.3,0,0.6,0.1,0.8,0.2c0.2,0.1,0.5,0.3,0.7,0.5c0.2,0.2,0.5,0.5,0.8,0.8l21.7,27.4
		c-0.1-0.9-0.1-1.7-0.2-2.6c0-0.8-0.1-1.6-0.1-2.3V27.5h9.3v45.6h-5.5c-0.8,0-1.5-0.1-2.1-0.4c-0.6-0.2-1.1-0.7-1.6-1.4l-21.5-27.2
		c0.1,0.8,0.1,1.6,0.2,2.3c0,0.8,0.1,1.5,0.1,2.1v24.5h-9.3V27.5h5.6C444.1,27.5,444.5,27.5,444.8,27.5"/>
	<polygon fill="#010101" points="150.6,86.7 150.6,89.9 136.6,89.9 136.6,100 148.5,100 148.5,103.2 136.6,103.2 136.6,115.7 
		132.6,115.7 132.6,86.7 "/>
	<path fill="#010101" d="M166.3,112.6c1.2,0,2.3-0.2,3.2-0.6c0.9-0.4,1.7-1,2.4-1.7c0.7-0.7,1.2-1.6,1.5-2.6c0.3-1,0.5-2.1,0.5-3.4V86.7
		h3.9v17.7c0,1.7-0.3,3.2-0.8,4.7c-0.5,1.4-1.3,2.7-2.3,3.7c-1,1-2.2,1.9-3.6,2.5c-1.4,0.6-3,0.9-4.8,0.9c-1.8,0-3.4-0.3-4.8-0.9
		c-1.4-0.6-2.7-1.4-3.7-2.5c-1-1-1.8-2.3-2.3-3.7c-0.5-1.4-0.8-3-0.8-4.7V86.7h3.9v17.7c0,1.2,0.2,2.3,0.5,3.3c0.3,1,0.8,1.9,1.5,2.6
		c0.7,0.7,1.5,1.3,2.4,1.7C164,112.4,165.1,112.6,166.3,112.6"/>
	<path fill="#010101" d="M184.7,86.8c0.2,0.1,0.4,0.3,0.6,0.5l16.8,21.9c0-0.3-0.1-0.7-0.1-1c0-0.3,0-0.7,0-1V86.7h3.5v29.1h-2
		c-0.3,0-0.6-0.1-0.8-0.2c-0.2-0.1-0.4-0.3-0.6-0.5l-16.8-21.9c0,0.3,0,0.7,0.1,1c0,0.3,0,0.6,0,0.9v20.7h-3.5V86.7h2
		C184.2,86.7,184.5,86.7,184.7,86.8"/>
	<path fill="#010101" d="M231,101.2c0-1.8-0.2-3.4-0.7-4.8c-0.5-1.4-1.2-2.6-2.1-3.6c-0.9-1-2-1.7-3.2-2.2c-1.3-0.5-2.7-0.8-4.2-0.8
		h-6.9v22.7h6.9c1.6,0,3-0.3,4.2-0.8c1.3-0.5,2.4-1.3,3.2-2.2c0.9-1,1.6-2.2,2.1-3.6C230.7,104.6,231,103,231,101.2 M235,101.2
		c0,2.2-0.3,4.2-1,5.9c-0.7,1.8-1.7,3.3-2.9,4.6c-1.3,1.3-2.8,2.3-4.5,3c-1.8,0.7-3.7,1-5.8,1h-10.9V86.7h10.9c2.1,0,4.1,0.3,5.8,1
		c1.8,0.7,3.3,1.7,4.5,3c1.3,1.3,2.2,2.8,2.9,4.6C234.7,97,235,99,235,101.2"/>
	<rect x="238.6" y="86.7" fill="#010101" width="3.9" height="29.1"/>
	<path fill="#010101" d="M249.6,86.8c0.2,0.1,0.4,0.3,0.6,0.5l16.8,21.9c0-0.3-0.1-0.7-0.1-1c0-0.3,0-0.7,0-1V86.7h3.4v29.1h-2
		c-0.3,0-0.6-0.1-0.8-0.2c-0.2-0.1-0.4-0.3-0.6-0.5l-16.8-21.9c0,0.3,0,0.7,0.1,1c0,0.3,0,0.6,0,0.9v20.7h-3.4V86.7h2
		C249.1,86.7,249.4,86.7,249.6,86.8"/>
	<path fill="#010101" d="M288.4,112.9c0.8,0,1.5,0,2.2-0.1c0.7-0.1,1.3-0.2,1.9-0.3c0.6-0.1,1.1-0.3,1.6-0.5c0.5-0.2,1-0.5,1.5-0.7v-6.4
		h-4.5c-0.3,0-0.5-0.1-0.6-0.2c-0.2-0.1-0.2-0.3-0.2-0.5v-2.2h8.9v11.2c-0.7,0.5-1.5,1-2.3,1.4c-0.8,0.4-1.6,0.7-2.5,1
		c-0.9,0.3-1.9,0.5-2.9,0.6c-1,0.1-2.1,0.2-3.3,0.2c-2.1,0-4-0.4-5.8-1.1c-1.8-0.7-3.3-1.7-4.5-3c-1.3-1.3-2.3-2.9-3-4.7
		c-0.7-1.8-1.1-3.8-1.1-6c0-2.2,0.4-4.2,1-6.1c0.7-1.8,1.7-3.4,3-4.7c1.3-1.3,2.9-2.3,4.7-3c1.8-0.7,3.9-1.1,6.2-1.1
		c1.2,0,2.2,0.1,3.2,0.3c1,0.2,1.9,0.4,2.7,0.7c0.8,0.3,1.6,0.7,2.3,1.2c0.7,0.4,1.4,1,2,1.5l-1.1,1.8c-0.2,0.4-0.5,0.6-0.9,0.6
		c-0.2,0-0.5-0.1-0.7-0.2c-0.3-0.2-0.7-0.4-1.1-0.7c-0.4-0.3-0.9-0.5-1.5-0.8c-0.6-0.3-1.3-0.5-2.1-0.6c-0.8-0.2-1.8-0.3-2.9-0.3
		c-1.6,0-3.1,0.3-4.4,0.8c-1.3,0.5-2.5,1.3-3.4,2.3c-0.9,1-1.7,2.2-2.2,3.6c-0.5,1.4-0.8,3-0.8,4.8c0,1.8,0.3,3.5,0.8,4.9
		c0.5,1.4,1.3,2.7,2.2,3.7c0.9,1,2.1,1.8,3.4,2.3C285.4,112.6,286.8,112.9,288.4,112.9"/>
	<polygon fill="#6E6F72" points="48.3,45.4 48.3,26 0,53.9 0,73.2 "/>
	<polygon fill="#6E6F72" points="0,99.2 48.3,71.3 48.3,52 0,79.8 "/>
	<polygon fill="#FEE600" points="54,19.4 54,0 102.3,27.9 102.3,47.3 "/>
	<polygon fill="#FEE600" points="102.3,73.2 54,45.4 54,26 102.3,53.9 "/>
	<polygon fill="#6E6F72" points="0,47.3 48.3,19.4 48.3,0 0,27.9 "/>
	<polygon fill="#FEE600" points="79.5,66.8 54,52 54,71.3 79.5,86.2 "/>
	<polygon fill="#D2D3D4" points="6,102.7 28.7,115.8 74,89.6 51.1,76.6 "/>
	<polygon fill="#D2D3D4" points="85.3,83.2 85.3,70.2 96.6,76.7 "/>
</svg>