<svg id="Layer_1" data-name="Layer 1" xmlns="http://www.w3.org/2000/svg" xmlns:xlink="http://www.w3.org/1999/xlink" viewBox="0 0 590.77 103.17">
  <defs>
    <radialGradient id="radial-gradient" cx="26.83" cy="2.07" fx="26.83" fy="2.07" r="42.28" gradientTransform="matrix(.88 0 0 .88 35.91 6.03)" gradientUnits="userSpaceOnUse">
      <stop offset="0" stop-color="#414142"/>
      <stop offset="1" stop-color="#fff" stop-opacity="0"/>
    </radialGradient>
    <radialGradient id="radial-gradient-2" cx="103.79" cy="73.36" fx="103.79" fy="73.36" r="39.07" xlink:href="#radial-gradient"/>
    <radialGradient id="radial-gradient-3" cx="-29.77" cy="72.82" fx="-29.77" fy="72.82" r="46.88" gradientTransform="matrix(.88 0 0 .88 35.91 6.03)" gradientUnits="userSpaceOnUse">
      <stop offset="0" stop-color="#e6341f"/>
      <stop offset="1" stop-color="#ffce05" stop-opacity="0"/>
    </radialGradient>
    <radialGradient id="radial-gradient-4" cx="-15.29" cy="39.98" fx="-15.29" fy="39.98" r="38.92" xlink:href="#radial-gradient-3"/>
    <style>
      .cls-1{fill:#fff}.cls-2{fill:#ffce05}
    </style>
  </defs>
  <path class="cls-1" d="M233.02 24.77v46.8h-10.7V44.36l-12.1 19.86h-1.2l-12.1-19.86v27.21h-10.7v-46.8h10.7l12.7 20.79 12.7-20.79h10.7ZM270.18 67.06c-3.41 3.38-7.56 5.07-12.47 5.07s-9.07-1.69-12.47-5.07c-3.41-3.38-5.11-7.53-5.11-12.44s1.7-9.05 5.11-12.44c3.41-3.38 7.56-5.08 12.47-5.08s9.07 1.69 12.47 5.08c3.41 3.38 5.11 7.53 5.11 12.44s-1.7 9.06-5.11 12.44Zm-17.91-6.8c1.46 1.46 3.27 2.19 5.44 2.19s3.98-.73 5.44-2.19c1.46-1.46 2.19-3.34 2.19-5.64s-.73-4.18-2.19-5.64-3.27-2.19-5.44-2.19-3.98.73-5.44 2.19c-1.46 1.46-2.19 3.34-2.19 5.64s.73 4.18 2.19 5.64ZM297.48 47.59h-6.83v11.74c0 1.33.53 2.17 1.59 2.52 1.06.35 2.81.46 5.24.33v9.02c-6.32.66-10.7.05-13.13-1.82-2.43-1.88-3.65-5.23-3.65-10.05v-27.6l9.95-2.98v9.29h6.83v9.55ZM330.84 67.06c-3.41 3.38-7.56 5.07-12.47 5.07s-9.07-1.69-12.47-5.07c-3.41-3.38-5.11-7.53-5.11-12.44s1.7-9.05 5.11-12.44c3.41-3.38 7.56-5.08 12.47-5.08s9.07 1.69 12.47 5.08c3.41 3.38 5.11 7.53 5.11 12.44s-1.7 9.06-5.11 12.44Zm-17.91-6.8c1.46 1.46 3.27 2.19 5.44 2.19s3.98-.73 5.44-2.19c1.46-1.46 2.19-3.34 2.19-5.64s-.73-4.18-2.19-5.64-3.27-2.19-5.44-2.19-3.98.73-5.44 2.19c-1.46 1.46-2.19 3.34-2.19 5.64s.73 4.18 2.19 5.64ZM351.54 43.94c.62-2.12 1.87-3.75 3.75-4.88s3.95-1.69 6.2-1.69v11.28c-2.43-.4-4.7.01-6.8 1.23-2.1 1.22-3.15 3.33-3.15 6.34v14.99h-9.95V38.04h9.95v5.9Z"/>
  <path class="cls-2" d="M403.29 37.11c3.8 0 6.85 1.25 9.15 3.75 2.3 2.5 3.45 5.83 3.45 9.98v20.37h-9.95v-19.5c0-1.68-.41-3.01-1.23-3.98-.82-.97-2-1.46-3.55-1.46-1.64 0-2.91.55-3.82 1.66s-1.36 2.63-1.36 4.58v18.71h-9.95v-19.5c0-1.68-.41-3.01-1.23-3.98-.82-.97-2-1.46-3.55-1.46-1.64 0-2.91.55-3.81 1.66-.91 1.11-1.36 2.63-1.36 4.58v18.71h-9.95V38.06h9.95v3.05c1.81-2.65 4.78-3.98 8.89-3.98 3.85 0 6.74 1.46 8.69 4.38 2.04-2.92 5.24-4.38 9.62-4.38ZM451.12 67.06c-3.41 3.38-7.56 5.07-12.47 5.07s-9.07-1.69-12.47-5.07c-3.41-3.38-5.11-7.53-5.11-12.44s1.7-9.05 5.11-12.44c3.4-3.38 7.56-5.08 12.47-5.08s9.07 1.69 12.47 5.08c3.41 3.38 5.11 7.53 5.11 12.44s-1.7 9.06-5.11 12.44Zm-17.91-6.8c1.46 1.46 3.27 2.19 5.44 2.19s3.98-.73 5.44-2.19 2.19-3.34 2.19-5.64-.73-4.18-2.19-5.64-3.27-2.19-5.44-2.19-3.98.73-5.44 2.19c-1.46 1.46-2.19 3.34-2.19 5.64s.73 4.18 2.19 5.64ZM490.26 67.06c-3.41 3.38-7.56 5.07-12.47 5.07s-9.07-1.69-12.47-5.07c-3.41-3.38-5.11-7.53-5.11-12.44s1.7-9.05 5.11-12.44c3.4-3.38 7.56-5.08 12.47-5.08s9.07 1.69 12.47 5.08c3.41 3.38 5.11 7.53 5.11 12.44s-1.7 9.06-5.11 12.44Zm-17.91-6.8c1.46 1.46 3.27 2.19 5.44 2.19s3.98-.73 5.44-2.19c1.46-1.46 2.19-3.34 2.19-5.64s-.73-4.18-2.19-5.64-3.27-2.19-5.44-2.19-3.98.73-5.44 2.19c-1.46 1.46-2.19 3.34-2.19 5.64s.73 4.18 2.19 5.64ZM500.3 71.57v-46.8h10.03v46.8H500.3ZM542.33 38.04h9.95v33.17h-9.95v-3.12c-2.34 2.7-5.64 4.05-9.88 4.05s-8.12-1.69-11.21-5.07c-3.1-3.38-4.64-7.53-4.64-12.44s1.55-9.05 4.64-12.44c3.09-3.38 6.83-5.08 11.21-5.08s7.54 1.35 9.88 4.05v-3.12Zm-13.6 22.49c1.46 1.46 3.36 2.19 5.71 2.19s4.25-.73 5.71-2.19 2.19-3.43 2.19-5.9-.73-4.44-2.19-5.9-3.36-2.19-5.71-2.19-4.25.73-5.71 2.19-2.19 3.43-2.19 5.9.73 4.44 2.19 5.9ZM578.92 37.2c3.57 0 6.54 1.23 8.92 3.68s3.58 5.84 3.58 10.16v20.52h-10.03V52.51c0-1.96-.55-3.47-1.64-4.51a5.78 5.78 0 0 0-4.18-1.57c-1.92 0-3.43.58-4.55 1.74-1.11 1.16-1.67 2.87-1.67 5.15v18.25h-10.03v-46.8h10.03v16.51c2.01-2.72 5.19-4.08 9.56-4.08Z"/>
  <path class="cls-1" d="M156.74 41.46a32.7 32.7 0 0 0-17.25-11.84l-13.18-3.77c-3.96-6.23-18.26-23.88-53.14-23.88a5.03 5.03 0 1 0 0 10.06c14.47 0 26.88 3.52 35.91 10.17 6.57 4.85 9.19 9.77 9.36 10.11l.92 2.02 17.36 4.97a22.98 22.98 0 0 1 16.59 22.01 2.88 2.88 0 0 1-2.87 2.87h-14.8c.55 1.74.89 3.57.97 5.45.07 1.59-.12 3.13-.49 4.62h14.32c7.13 0 12.93-5.8 12.93-12.93s-2.3-14.08-6.64-19.84Z"/>
  <path d="M156.74 41.46a32.7 32.7 0 0 0-17.25-11.84l-13.18-3.77c-3.96-6.23-18.26-23.88-53.14-23.88a5.03 5.03 0 1 0 0 10.06c14.47 0 26.88 3.52 35.91 10.17 6.57 4.85 9.19 9.77 9.36 10.11l.92 2.02 17.36 4.97a22.98 22.98 0 0 1 16.59 22.01 2.88 2.88 0 0 1-2.87 2.87h-14.8c.55 1.74.89 3.57.97 5.45.07 1.59-.12 3.13-.49 4.62h14.32c7.13 0 12.93-5.8 12.93-12.93s-2.3-14.08-6.64-19.84Z" fill="url(#radial-gradient)"/>
  <path d="M156.74 41.46a32.7 32.7 0 0 0-17.25-11.84l-13.18-3.77c-2.32-3.64-8.18-11.19-19.61-16.83.05 1.25 0 2.49-.16 3.67a18.07 18.07 0 0 1-2.14 6.54c1.64.92 3.21 1.91 4.68 2.99 6.57 4.85 9.19 9.77 9.36 10.11l.92 2.02 17.36 4.97a22.98 22.98 0 0 1 16.59 22.01 2.88 2.88 0 0 1-2.87 2.87h-14.8c.55 1.74.89 3.57.97 5.45.07 1.59-.12 3.13-.49 4.62h14.32c7.13 0 12.93-5.8 12.93-12.93s-2.3-14.08-6.64-19.84Z" fill="url(#radial-gradient-2)"/>
  <path class="cls-2" d="M48.47 57.48H4.39a5.03 5.03 0 1 1 0-10.06h44.08a5.03 5.03 0 1 1 0 10.06Z"/>
  <path class="cls-1" d="M110.43 34.25c-3.12-5.86-10.69-14.35-28.57-15.44a3.74 3.74 0 0 0-3.95 3.73V36.5a3.37 3.37 0 0 0 3.37 3.37h25.78a3.82 3.82 0 0 0 3.37-5.63ZM68.88 18.8C51 19.9 43.43 28.38 40.31 34.24a3.82 3.82 0 0 0 3.37 5.63h25.78a3.37 3.37 0 0 0 3.37-3.37V22.54c0-2.15-1.8-3.86-3.95-3.73ZM123.98 51.58a16.76 16.76 0 1 0 0 33.51 16.76 16.76 0 0 0 0-33.51Zm0 25.87a9.11 9.11 0 1 1 0-18.22 9.11 9.11 0 0 1 0 18.22Z"/>
  <path class="cls-2" d="M12.74 101.2c-7.38 0-13.38-6-13.38-13.38 0-6.87 5.59-12.46 12.46-12.46h4.23V62.62c0-11.48 2.18-27.96 12.58-41.25A47.8 47.8 0 0 1 46.59 7.24c7.65-3.49 16.6-5.27 26.58-5.27a5.03 5.03 0 1 1 0 10.06c-42.47 0-47.05 35.37-47.05 50.58v12.74h49.16a5.03 5.03 0 1 1 0 10.06H26.12v2.4c0 7.38-6 13.38-13.38 13.38Zm-.92-15.78a2.4 2.4 0 0 0-2.4 2.4 3.32 3.32 0 0 0 6.64 0v-2.4h-4.23Z"/>
  <path d="M26.12 85.42v1.95c0 7.17-5.46 13.41-12.62 13.81-1.96.12-3.83-.2-5.53-.86-3.74-1.43-6.16-5.3-5.3-9.22.63-2.86 2.84-5.67 9.15-5.67-2.23 0-3.77 3.06-.6 5.2.45.31.99.51 1.52.51 1.82 0 3.3-1.49 3.3-3.32v-2.4h10.08Z" fill="url(#radial-gradient-3)"/>
  <path d="M26.12 62.61c0-1.53.05-3.26.18-5.13H16.21c-.1 1.79-.15 3.52-.15 5.13v12.74h10.07V62.61Z" fill="url(#radial-gradient-4)"/>
  <path class="cls-1" d="M312.01 85.84v.86c0 1.86-.64 3.41-1.92 4.64-1.28 1.23-2.97 1.85-5.08 1.85s-3.98-.72-5.4-2.15c-1.42-1.44-2.13-3.19-2.13-5.26s.71-3.82 2.13-5.26a7.21 7.21 0 0 1 5.36-2.15 7.18 7.18 0 0 1 6.18 3.45l-1.63.96a4.56 4.56 0 0 0-1.85-1.87 5.39 5.39 0 0 0-2.73-.7 5.39 5.39 0 0 0-5.59 5.57 5.4 5.4 0 0 0 5.67 5.55c1.43 0 2.59-.35 3.47-1.05a4.3 4.3 0 0 0 1.61-2.73h-5.25v-1.71H312ZM315.38 88.64c.18.91.6 1.62 1.26 2.12s1.47.76 2.44.76c1.35 0 2.33-.5 2.94-1.49l1.51.86a4.98 4.98 0 0 1-4.49 2.31c-1.62 0-2.94-.51-3.95-1.52s-1.52-2.3-1.52-3.85.5-2.82 1.49-3.84a5.14 5.14 0 0 1 3.86-1.53c1.5 0 2.72.53 3.66 1.58a5.52 5.52 0 0 1 1.36 4.61h-8.55Zm3.53-4.51c-.95 0-1.74.27-2.37.81s-1.01 1.26-1.16 2.15h6.82c-.15-.97-.53-1.7-1.14-2.21s-1.33-.75-2.14-.75ZM331.28 84.44h-2.72v5.53c0 .5.1.86.3 1.07.2.21.5.32.91.33.41 0 .91 0 1.51-.03v1.59c-1.55.2-2.69.08-3.41-.38-.72-.46-1.08-1.32-1.08-2.58v-5.53h-2.02v-1.72h2.02v-2.33l1.78-.53v2.86h2.72v1.72ZM344.1 84.44h-2.72v5.53c0 .5.1.86.3 1.07.2.21.5.32.91.33.41 0 .91 0 1.51-.03v1.59c-1.55.2-2.69.08-3.41-.38-.72-.46-1.08-1.32-1.08-2.58v-5.53h-2.02v-1.72h2.02v-2.33l1.78-.53v2.86h2.72v1.72ZM351.29 82.46c1.2 0 2.16.38 2.88 1.13a4.28 4.28 0 0 1 1.08 3.07v6.27h-1.78v-6.16c0-.83-.23-1.47-.67-1.93a2.48 2.48 0 0 0-1.86-.68c-.88 0-1.6.28-2.14.83-.54.55-.82 1.4-.82 2.54v5.41h-1.78V78.65h1.78v5.55a3.62 3.62 0 0 1 3.31-1.74ZM366.17 82.72h1.78v10.21h-1.78v-1.76a4.32 4.32 0 0 1-3.86 2.02c-1.43 0-2.65-.52-3.65-1.56s-1.51-2.31-1.51-3.81.5-2.77 1.51-3.81a4.9 4.9 0 0 1 3.65-1.56c1.69 0 2.97.67 3.86 2.02v-1.76Zm-3.63 8.76a3.57 3.57 0 0 0 3.63-3.65 3.57 3.57 0 0 0-3.63-3.65 3.57 3.57 0 0 0-3.61 3.65 3.57 3.57 0 0 0 3.61 3.65ZM376.2 84.44h-2.72v5.53c0 .5.1.86.3 1.07.2.21.5.32.91.33s.91 0 1.51-.03v1.59c-1.55.2-2.69.08-3.41-.38-.72-.46-1.08-1.32-1.08-2.58v-5.53h-2.02v-1.72h2.02v-2.33l1.78-.53v2.86h2.72v1.72ZM397.02 78.64v14.29h-1.88V81.76l-4.67 7.78h-.23l-4.69-7.79v11.18h-1.9V78.64h2.14l4.57 7.59 4.54-7.59h2.12ZM408.51 91.64c-1.05 1.04-2.32 1.55-3.82 1.55s-2.77-.52-3.81-1.55-1.56-2.31-1.56-3.82.52-2.78 1.56-3.82c1.04-1.03 2.31-1.55 3.81-1.55s2.77.52 3.82 1.55c1.05 1.04 1.57 2.31 1.57 3.82s-.52 2.78-1.57 3.82Zm-3.82-.18a3.53 3.53 0 0 0 3.61-3.63 3.53 3.53 0 0 0-3.61-3.63 3.53 3.53 0 0 0-3.59 3.63 3.53 3.53 0 0 0 3.59 3.63ZM420.8 91.64c-1.05 1.04-2.32 1.55-3.82 1.55s-2.77-.52-3.81-1.55-1.56-2.31-1.56-3.82.52-2.78 1.56-3.82c1.04-1.03 2.31-1.55 3.81-1.55s2.77.52 3.82 1.55c1.05 1.04 1.57 2.31 1.57 3.82s-.52 2.78-1.57 3.82Zm-3.82-.18a3.53 3.53 0 0 0 3.61-3.63 3.53 3.53 0 0 0-3.61-3.63 3.53 3.53 0 0 0-3.59 3.63 3.53 3.53 0 0 0 3.59 3.63ZM424.47 92.93v-14.9h1.78v14.9h-1.78ZM437.42 82.72h1.78v10.21h-1.78v-1.76a4.32 4.32 0 0 1-3.86 2.02c-1.43 0-2.65-.52-3.65-1.56s-1.51-2.31-1.51-3.81.5-2.77 1.51-3.81a4.9 4.9 0 0 1 3.65-1.56c1.69 0 2.97.67 3.86 2.02v-1.76Zm-3.63 8.76a3.57 3.57 0 0 0 3.63-3.65 3.57 3.57 0 0 0-3.63-3.65 3.57 3.57 0 0 0-3.61 3.65 3.57 3.57 0 0 0 3.61 3.65ZM446.97 82.46c1.2 0 2.16.38 2.88 1.13a4.28 4.28 0 0 1 1.08 3.07v6.27h-1.78v-6.16c0-.83-.23-1.47-.67-1.93a2.48 2.48 0 0 0-1.86-.68c-.88 0-1.6.28-2.14.83s-.82 1.4-.82 2.54v5.41h-1.78V78.65h1.78v5.55a3.62 3.62 0 0 1 3.31-1.74ZM463.75 80.09c-1.8-.15-2.7.63-2.7 2.33v.31h2.7v1.72h-2.7v8.49h-1.78v-8.49h-1.63v-1.72h1.63v-.31c0-1.37.38-2.42 1.15-3.12.77-.71 1.87-1.01 3.32-.92v1.71ZM473.16 91.64c-1.05 1.04-2.32 1.55-3.82 1.55s-2.77-.52-3.81-1.55-1.56-2.31-1.56-3.82.52-2.78 1.56-3.82c1.04-1.03 2.31-1.55 3.81-1.55s2.77.52 3.82 1.55c1.05 1.04 1.57 2.31 1.57 3.82s-.52 2.78-1.57 3.82Zm-3.82-.18a3.53 3.53 0 0 0 3.61-3.63 3.53 3.53 0 0 0-3.61-3.63 3.53 3.53 0 0 0-3.59 3.63 3.53 3.53 0 0 0 3.59 3.63ZM478.61 84.44c.59-1.27 1.65-1.9 3.19-1.9v1.86a3.21 3.21 0 0 0-2.24.69c-.63.5-.94 1.31-.94 2.43v5.41h-1.78V82.72h1.78v1.72ZM495.76 82.72h1.9l-4.17 10.84a5.84 5.84 0 0 1-1.83 2.64c-.78.61-1.68.87-2.71.81v-1.65c1.25.1 2.16-.6 2.75-2.09l.19-.38-4.45-10.17h1.9l3.4 7.83 3.01-7.83ZM507.35 91.64c-1.05 1.04-2.32 1.55-3.82 1.55s-2.77-.52-3.81-1.55-1.56-2.31-1.56-3.82.52-2.78 1.56-3.82c1.04-1.03 2.31-1.55 3.81-1.55s2.77.52 3.82 1.55c1.05 1.04 1.57 2.31 1.57 3.82s-.52 2.78-1.57 3.82Zm-3.82-.18a3.53 3.53 0 0 0 3.61-3.63 3.53 3.53 0 0 0-3.61-3.63 3.53 3.53 0 0 0-3.59 3.63 3.53 3.53 0 0 0 3.59 3.63ZM518.07 82.72h1.78v10.21h-1.78v-1.47c-.72 1.16-1.82 1.73-3.31 1.73-1.2 0-2.16-.38-2.88-1.13a4.26 4.26 0 0 1-1.08-3.07v-6.27h1.78v6.17c0 .83.22 1.47.67 1.93.45.46 1.07.68 1.86.68.88 0 1.6-.28 2.14-.83.54-.55.82-1.4.82-2.54v-5.41ZM524.32 84.44c.59-1.27 1.65-1.9 3.19-1.9v1.86a3.21 3.21 0 0 0-2.24.69c-.63.5-.94 1.31-.94 2.43v5.41h-1.78V82.72h1.78v1.72Z"/>
  <path class="cls-2" d="M547.9 78.64v14.29h-1.88V81.76l-4.67 7.78h-.23l-4.69-7.79v11.18h-1.9V78.64h2.14l4.57 7.59 4.54-7.59h2.12ZM559.39 91.64c-1.05 1.04-2.32 1.55-3.82 1.55s-2.77-.52-3.81-1.55-1.56-2.31-1.56-3.82.52-2.78 1.56-3.82c1.04-1.03 2.31-1.55 3.81-1.55s2.77.52 3.82 1.55c1.05 1.04 1.57 2.31 1.57 3.82s-.52 2.78-1.57 3.82Zm-3.82-.18a3.53 3.53 0 0 0 3.61-3.63 3.53 3.53 0 0 0-3.61-3.63 3.53 3.53 0 0 0-3.59 3.63 3.53 3.53 0 0 0 3.59 3.63ZM568.39 84.44h-2.72v5.53c0 .5.1.86.3 1.07.2.21.5.32.91.33s.91 0 1.51-.03v1.59c-1.55.2-2.69.08-3.41-.38-.72-.46-1.08-1.32-1.08-2.58v-5.53h-2.02v-1.72h2.02v-2.33l1.78-.53v2.86h2.72v1.72ZM578.6 91.64c-1.05 1.04-2.32 1.55-3.82 1.55s-2.77-.52-3.81-1.55-1.56-2.31-1.56-3.82.52-2.78 1.56-3.82c1.04-1.03 2.31-1.55 3.81-1.55s2.77.52 3.82 1.55c1.05 1.04 1.57 2.31 1.57 3.82s-.52 2.78-1.57 3.82Zm-3.82-.18a3.53 3.53 0 0 0 3.61-3.63 3.53 3.53 0 0 0-3.61-3.63 3.53 3.53 0 0 0-3.59 3.63 3.53 3.53 0 0 0 3.59 3.63ZM584.05 84.44c.59-1.27 1.65-1.9 3.19-1.9v1.86a3.21 3.21 0 0 0-2.24.69c-.63.5-.94 1.31-.94 2.43v5.41h-1.78V82.72h1.78v1.72ZM590.09 93.15c-.37 0-.68-.13-.94-.39-.26-.26-.39-.57-.39-.94s.13-.68.39-.94.57-.39.94-.39.7.13.95.39.38.57.38.94a1.3 1.3 0 0 1-1.33 1.33Zm-.67-4.41-.39-6.02v-4.08h2.14v4.08l-.39 6.02h-1.37Z"/>
</svg>