<?xml version="1.0" encoding="UTF-8"?>
<svg id="Layer_1" data-name="Layer 1" xmlns="http://www.w3.org/2000/svg" xmlns:xlink="http://www.w3.org/1999/xlink" viewBox="0 0 250 80">
  <defs>
    <style>
      .cls-1 {
        fill: url(#linear-gradient);
      }

      .cls-2 {
        fill: #fff;
      }

      .cls-3 {
        fill: #c31964;
      }

      .cls-4 {
        fill: #121643;
      }
    </style>
    <linearGradient id="linear-gradient" x1="34.5" y1="263.53" x2="34.5" y2="343.69" gradientTransform="translate(0 342) scale(1 -1)" gradientUnits="userSpaceOnUse">
      <stop offset=".21" stop-color="#960064"/>
      <stop offset=".31" stop-color="#a90b64"/>
      <stop offset=".58" stop-color="#d82564"/>
      <stop offset=".78" stop-color="#f43664"/>
      <stop offset=".9" stop-color="#ff3c64"/>
    </linearGradient>
  </defs>
  <path class="cls-1" d="m63.16,16.62L34.5,0h0l-.12.07L5.84,16.62C2.22,18.71,0,22.58,0,26.77v26.46c0,4.19,2.22,8.06,5.84,10.15l28.66,16.62h0l.12-.07,28.54-16.55c3.61-2.09,5.84-5.96,5.84-10.15v-26.46c0-4.19-2.22-8.06-5.84-10.15Z"/>
  <g>
    <path class="cls-4" d="m84.36,40.02c0-8.2,6.2-13.8,14.2-13.8,5.88,0,9.28,3.2,11.16,6.52l-4.88,2.4c-1.12-2.16-3.52-3.88-6.28-3.88-4.84,0-8.36,3.72-8.36,8.76s3.52,8.76,8.36,8.76c2.76,0,5.16-1.68,6.28-3.88l4.88,2.36c-1.92,3.32-5.28,6.56-11.16,6.56-8,0-14.2-5.6-14.2-13.8Z"/>
    <path class="cls-4" d="m113,53.34v-26.68h5.08v26.68h-5.08Z"/>
    <path class="cls-4" d="m122.6,28.9c0-1.68,1.4-3,3.04-3s3.04,1.32,3.04,3-1.36,3.04-3.04,3.04-3.04-1.36-3.04-3.04Zm.52,24.44v-19.32h5.08v19.32h-5.08Z"/>
    <path class="cls-4" d="m132,43.66c0-5.92,4.28-10.12,10.24-10.12,3.96,0,6.36,1.72,7.64,3.48l-3.32,3.12c-.92-1.36-2.32-2.08-4.08-2.08-3.08,0-5.24,2.24-5.24,5.6s2.16,5.64,5.24,5.64c1.76,0,3.16-.8,4.08-2.08l3.32,3.08c-1.28,1.8-3.68,3.52-7.64,3.52-5.96,0-10.24-4.2-10.24-10.16Z"/>
    <path class="cls-4" d="m165.72,53.34l-5.12-7.44-2.32,2.48v4.96h-5.08v-26.68h5.08v15.96l7.32-8.6h6.24l-7.64,8.76,7.88,10.56h-6.36Z"/>
  </g>
  <g>
    <path class="cls-3" d="m196.52,53.34l-5.88-21.52-5.88,21.52h-3.6l-7.6-26.67h3.68l5.92,22.24,6.12-22.24h2.76l6.12,22.24,5.88-22.24h3.68l-7.6,26.67h-3.6Z"/>
    <path class="cls-3" d="m208.6,43.66c0-5.6,4-10.12,9.52-10.12,5.84,0,9.28,4.56,9.28,10.36v.76h-15.64c.24,3.64,2.8,6.68,6.96,6.68,2.2,0,4.44-.88,5.96-2.44l1.44,1.96c-1.92,1.92-4.52,2.96-7.68,2.96-5.72,0-9.84-4.12-9.84-10.16Zm9.48-7.64c-4.12,0-6.16,3.48-6.32,6.44h12.68c-.04-2.88-1.96-6.44-6.36-6.44Z"/>
    <path class="cls-3" d="m232.24,53.34v-26.67h3v10.28c1.56-2.12,3.88-3.4,6.52-3.4,5.04,0,8.6,4,8.6,10.16s-3.56,10.12-8.6,10.12c-2.72,0-5.08-1.4-6.52-3.36v2.88h-3Zm8.76-2.2c3.92,0,6.24-3.16,6.24-7.44s-2.32-7.48-6.24-7.48c-2.36,0-4.72,1.44-5.76,3.12v8.76c1.04,1.68,3.4,3.04,5.76,3.04Z"/>
  </g>
  <path class="cls-2" d="m34.5,20c-11.05,0-20,8.95-20,20s8.95,20,20,20,20-8.95,20-20c0-11.04-8.96-19.99-20-20Zm16.66,20c0,1.12-.11,2.24-.33,3.33h-6.42c.21-2.22.21-4.45,0-6.66h6.42c.22,1.1.34,2.21.33,3.33Zm-1.4-6.66h-5.83c-.58-3.09-1.68-6.07-3.24-8.8,4.06,1.64,7.31,4.8,9.07,8.8Zm-9.26,0h-4.33v-9.43c2.17,2.75,3.66,5.99,4.33,9.43Zm-7.68-9.43v9.43h-4.33c.68-3.44,2.16-6.67,4.33-9.43Zm0,12.76v6.66h-4.88c-.24-2.21-.24-4.45,0-6.66h4.88Zm0,9.99v9.43c-2.17-2.75-3.66-5.99-4.33-9.43h4.33Zm3.34,9.43v-9.43h4.33c-.68,3.44-2.16,6.67-4.33,9.43Zm0-12.76v-6.66h4.88c.24,2.21.24,4.45,0,6.66h-4.88Zm-7.86-18.79c-1.56,2.73-2.66,5.71-3.24,8.8h-5.83c1.76-4,5.02-7.16,9.07-8.8Zm-10.13,12.15h6.42c-.21,2.22-.21,4.45,0,6.66h-6.43c-.45-2.2-.45-4.46,0-6.66h.01Zm1.06,9.99h5.83c.58,3.09,1.68,6.07,3.24,8.8-4.06-1.64-7.32-4.81-9.08-8.82v.02Zm21.45,8.8c1.56-2.73,2.66-5.71,3.24-8.8h5.83c-1.77,4-5.03,7.15-9.08,8.78v.02Z"/>
</svg>